<svg xmlns="http://www.w3.org/2000/svg" viewBox="0 0 394.95 283.17"><defs><style>.cls-1{fill:#f15a24;}.cls-2{fill:#ffe6c5;}.cls-3{fill:#fff;}.cls-4{fill:#007a66;}.cls-5{fill:#00af9f;}.cls-6{fill:#1abca4;}.cls-7{fill:#1a927a;}.cls-8{fill:#f79e6c;}.cls-9{fill:#007986;}.cls-10{fill:#1eb5bb;}</style></defs><title>critters</title><g id="Layer_2" data-name="Layer 2"><g id="Fox"><path class="cls-1" d="M228.22,213a62.44,62.44,0,0,1,1.9-13.11c1.72-7.12,6.39-16.59-2.53-20.56-7.13-3.17-17.14-2.08-24.33.4-1.2.41-3.86,1.09-3.86,1.09a131.67,131.67,0,0,1,10.49,28.48C216.13,212.74,228.22,213,228.22,213Z"/><path d="M228.22,212.6c-.08,8.37,5.11,3.6,4.5,10.57-1.25,14.25-14.57,38.29-19.34,45.34-2.77,4.1-8.66,9.38-15.16,8.66-10.11-1.13,3.24-10.71,5.5-14.18,5.1-7.82,11.94-33.38,6.1-53.89C221.13,213,228.22,212.6,228.22,212.6Z"/><path class="cls-2" d="M.2,44.48a65.61,65.61,0,0,0,5.14,17.1c2.36,5.39,8.33,15,15.33,19.18,3.87-3.58,6.1-10.45,7.35-13.83-.59-6-5.52-10.93-9.94-14.59A40.07,40.07,0,0,0,3.69,44.86,14.81,14.81,0,0,0,.2,44.48Z"/><path d="M36.67,49c-2.1.6-5.38.19-7.47-.29C23.8,47.47,18.41,46.19,13,45.16c-3.41-.65-9.53-2.07-13-.83-.05,2.84,1.2,7.59,2.09,10.29A86.83,86.83,0,0,0,8,67.46c1.51,2.59,7.69,11,12.26,13.06a94.27,94.27,0,0,1-6.77-6.94c-2.08-2.32-3.44-5.06-5-7.73A62.5,62.5,0,0,1,.59,44.93c13,5.88,23.33,15.25,24.48,24.46l0-.26c1.62-2.29,2.83-4.57,4.66-6.75a35.89,35.89,0,0,0,5-7.75C35.46,53.13,37.2,50.61,36.67,49Z"/><path class="cls-2" d="M108.92,19.22c.73-4.59,4.16-13.65,7.21-17.36,5,3.23,9.78,13.21,11.08,16.86a71.27,71.27,0,0,1,3.25,17.39c-1.38.21-21.15-3.53-22.68-3.71A126.67,126.67,0,0,1,108.92,19.22Z"/><path d="M109.29,32.52c-11.29-.72-15.07-3.85-18.72-7C91.45,23,114.72.92,115.78.12c2.41-1.82,15.31,18,14.65,35.62a67.33,67.33,0,0,0-11-30c-1-1.45-2.77-3.61-3.25-3C109.44,9.46,109.29,32.52,109.29,32.52Z"/><path class="cls-2" d="M364.89,166.66c1.89,3,6.86,14.16,16.79,19.81,4.6,2.62,9.4,5.76,13.28,5.83-12.06,6.87-31.86,9.86-56.73,7.33-9-.92-12.57-4.67-14.72-13.86-2.27-9.73,2.77-20.16,9.43-27.65C343.72,146,361.54,163.08,364.89,166.66Z"/><path class="cls-1" d="M106.75,234c4-15.36,8.15-34.75,9.43-41.44-5.49-9.68-26.43-25.67-28-26.59,4.77,18.57,3.21,51.29,3.26,52.75C93,226.73,106.75,234,106.75,234Z"/><path d="M107.3,232c-.22.89-6.46,26.07-8.33,30.52-3.83,9.13-7.73,12.42-15.06,15-5.46,1.94-11.19.29-8.61-5.87,1.21-2.88,3.22-3.49,5.36-6.12,1.3-1.6,3.58-3.45,4.81-7.52,1.39-4.59,5.57-17.37,6-39.87C91.48,218.12,96.28,229.63,107.3,232Z"/><path class="cls-2" d="M144.14,59.68c2.32-4.54,7.8-10.49,16.44-15.36-30.85,6.09-44,18-50.68,25.72-2.2,2.54-5.36,6.82-8,8.71-27,.53-74.6,10.74-85.24,34.28,7.52-5.15,17.4-6.7,20.9-6.4A14.68,14.68,0,0,0,34,116.12c3.15-3.69,11.86-3.75,16.37-3.69,5.24.07,11.94,1.54,16.14,5,6.23,5.06,5.66,17.52,7.2,24.82,2.14,10.15,4.87,20.24,9.14,29.72,6.68,14.81,17.51,27.85,33.29,33.2,13.94,4.73,28.94,2.94,43-.25,13.36-3,26.44-7.17,39.84-10.08,14.11-3.07,40.72-5.89,50.7-6.34-8.5-9.58-22.18-12.89-33.93-17.21-21.91-8-39.37-18.68-57.25-33.91-9.29-7.92-33.47-29.53-24.5-51.5,4.15-10.16,10-18.54,23.29-23.24C157.34,62.58,149.08,59.15,144.14,59.68Z"/><path class="cls-1" d="M141.9,111.92c-1.31-.41-2.65-2.19-3.86-1.55-8.82,4.73-20.13,8.86-33,12.2,11.77,12.79,18.14,43.39,20,53.73,1.77,9.65,1.95,18.8,1.94,28.58,0,3.85-.79,13.27-1.66,23.87l17.53,6.76c7.57-20.5,21.08-56,43.68-62.36,19.3-5.42,37,.1,47.37,17.34a145.18,145.18,0,0,1,8,16.14c6.93,3.46,20.72,4.69,20.72,4.69-.35-7,3.62-19.29,5-24.22a82,82,0,0,0,2.06-30.6c-.78-6.86-3.41-13.4-3.75-20.36-.16-3.18-.1-7.57,4.06-7.54,3.4,0,7.7,4.72,8.81,7.71,3.36,9.12,5.44,18.75,9.85,27.46,3.69,7.31,10.13,16.84,16.87,21.6,5.72,4,22.95,12.8,28.4,13.48-1.77-1.78-5.29-9.69-5.21-12.61a105.7,105.7,0,0,0,17,2.5c-2.46-3.26-11.41-15.16-11.5-18.5,8.43,4.08,15.17,8.58,23.75,10a81.06,81.06,0,0,1-14-24c7.15,3.43,15.77,6.79,20.92,10.42-6-7.17-10.41-16.36-14.18-24.81-6-13.48-12.11-27.08-25.33-33.54-21-10.28-52.4-10.22-66.65,11-9.54-3.27-19-6.85-29-8.47-20-3.24-39.57,2.21-59.52,3.46C160.85,114.92,150.9,114.7,141.9,111.92Z"/><path d="M262.64,210.52a4.77,4.77,0,0,0,1.41,3.64c3.29,4.32,5.21,3.37,3.09,10-4.31,13.52-13.33,35.9-15.8,42.07-2.55,6.36-8.56,17-17.32,16.44-10.82-.69.54-9.61,2.86-13,5.43-8,7.74-23.85,8.58-31.42,1.41-12.6-1.58-25.87-4.15-33.12A57.65,57.65,0,0,0,262.64,210.52Z"/><path d="M126,221.06c-.23,2.61-.39,4.71-.74,7.65-.75,6.41-1.29,12.49-1.88,15.74-1.29,7.2-2.71,15.76-7.2,21.79-1.71,2.29-9.31,10-8.85,13.05.37,2.44,5.15,4.34,9,3.78,11.81-1.73,17.1-16.25,19.81-25.83,2.26-8,4.08-12.89,7.2-23.09A25.74,25.74,0,0,1,126,221.06Z"/><path class="cls-1" d="M151.25,35.3c-1.77,3.19-6.23,5.9-8.67,8.79,4.47,2,15.26.94,18.58-.28-2.44,3.25-18.39,6.54-26,10.33C131.61,55.89,113,67.41,103,83.21c-6.31,1.12-13.08.68-19.49,1.29-14.58,1.39-28.82,4-41.85,11-10.5,5.63-18.43,15.11-29.55,19.85,4.13-3.58,8-14,8.31-14-5.58,1-8.67,1.75-15.33.54,15.58-8.54,15.62-34.34,34.59-58.23C45.51,36.31,63.11,26.86,75.09,26c2.53-.18,13.46-1.25,21.38-.25,19.57,2.47,24.59,8.7,33.1,9.87,6.07.84,10,1.46,15.67.88A27.89,27.89,0,0,0,151.25,35.3Z"/><path d="M94.09,85.83c2.15,4.62,12,1.57,13.92-2,2.32-4.34-.28-6.74-4.06-6.81C98.82,77,91.75,80.77,94.09,85.83Z"/><path d="M53.65,74.11a6.41,6.41,0,0,0-6.61,6c-.51,6.73,7.62,9.61,12,4.65C63.3,80,58,74.17,53.65,74.11Z"/><path class="cls-3" d="M59.5,82.86c-1.08,5.92-10.16,4.24-11.33-.8a5.83,5.83,0,0,1,3.2-6.63C57.42,72.85,60,80,59.5,82.86Z"/><path d="M52.18,84.08a4,4,0,0,0,7.56-1.48c.28-2.81-1.58-6.33-4.73-5.16C52.14,78.51,50.55,81.21,52.18,84.08Z"/><circle class="cls-3" cx="56.72" cy="81.75" r="0.92"/><path d="M108,56.45a6.45,6.45,0,0,0,2.25,7.44c4.92,3.36,12.38-1.24,10.67-7.23C119.28,51.06,109.91,51.17,108,56.45Z"/><path class="cls-3" d="M110.13,54.74a6.29,6.29,0,0,0-.62,7.13c2.71,4.74,10.79,1.87,10.77-3.3a4.89,4.89,0,0,0-4.22-5.18C114.28,53.14,111.7,53,110.13,54.74Z"/><path d="M112.56,62.07a4.88,4.88,0,0,0,1.53,1.28c2.51,1.25,6-1,6.41-3.68a3.75,3.75,0,0,0-3-4.38c-2.11-.6-5.15.27-5.85,2.64A4.73,4.73,0,0,0,112.56,62.07Z"/><circle class="cls-3" cx="117.34" cy="59.41" r="0.96"/><path d="M79.76,102.58c2.75.77,7.39.9,9.76-.93A15,15,0,0,0,93,97.9a8.69,8.69,0,0,1-7.51,6.72c-3.45.46-8,.3-10.19-2.91a8.35,8.35,0,0,1-.87-6C75.37,98.64,76.11,101.56,79.76,102.58Z"/><path class="cls-4" d="M38.31,201.4a.49.49,0,0,1-.21,0,.5.5,0,0,1-.24-.66l3.62-7.81a.5.5,0,0,1,.91.42l-3.62,7.81A.5.5,0,0,1,38.31,201.4Z"/><path class="cls-4" d="M41.29,202.49h-.12a.5.5,0,0,1-.36-.61L43,193.12a.5.5,0,1,1,1,.24l-2.19,8.75A.5.5,0,0,1,41.29,202.49Z"/><path class="cls-4" d="M43.76,203.11H43.7a.5.5,0,0,1-.43-.56l1.24-9a.5.5,0,0,1,1,.14l-1.24,9A.5.5,0,0,1,43.76,203.11Z"/><path class="cls-4" d="M45.44,203.29h-.09a.5.5,0,0,1-.4-.59l1.75-9.18a.5.5,0,0,1,1,.19l-1.75,9.18A.5.5,0,0,1,45.44,203.29Z"/><path class="cls-4" d="M47.66,203.84h-.07a.5.5,0,0,1-.42-.57L48.51,194a.5.5,0,1,1,1,.14l-1.35,9.28A.5.5,0,0,1,47.66,203.84Z"/><path class="cls-4" d="M49.35,204.27h-.12a.5.5,0,0,1-.36-.61l2.36-9.43a.5.5,0,1,1,1,.24l-2.36,9.43A.5.5,0,0,1,49.35,204.27Z"/><path class="cls-4" d="M51.73,204.57H51.6a.5.5,0,0,1-.36-.61l2.3-9.15a.5.5,0,1,1,1,.24l-2.3,9.15A.5.5,0,0,1,51.73,204.57Z"/><path class="cls-4" d="M53.42,205H53.3a.5.5,0,0,1-.36-.61l2.3-9.16a.5.5,0,1,1,1,.24l-2.3,9.16A.5.5,0,0,1,53.42,205Z"/><path class="cls-4" d="M55.58,205h-.09a.5.5,0,0,1-.4-.58l1.64-9.19a.5.5,0,1,1,1,.18l-1.64,9.19A.5.5,0,0,1,55.58,205Z"/><path class="cls-4" d="M57.88,205.21h-.12a.5.5,0,0,1-.36-.61l2.27-9a.5.5,0,1,1,1,.24l-2.27,9A.5.5,0,0,1,57.88,205.21Z"/><path class="cls-4" d="M60.06,205.76h-.12a.5.5,0,0,1-.36-.61l2.27-9a.5.5,0,1,1,1,.24l-2.27,9A.5.5,0,0,1,60.06,205.76Z"/><path class="cls-4" d="M62.49,205.85h-.1a.5.5,0,0,1-.38-.59l1.92-9a.5.5,0,1,1,1,.21l-1.92,9A.5.5,0,0,1,62.49,205.85Z"/><path class="cls-4" d="M63.64,206.66l-.14,0a.5.5,0,0,1-.34-.62l2.66-9.32a.5.5,0,0,1,1,.28l-2.66,9.32A.5.5,0,0,1,63.64,206.66Z"/><path class="cls-4" d="M65.52,207.13H65.4a.5.5,0,0,1-.36-.61l2.51-10a.5.5,0,1,1,1,.24l-2.51,10A.5.5,0,0,1,65.52,207.13Z"/><path class="cls-4" d="M68.73,207.42h-.07a.5.5,0,0,1-.43-.56l1.3-9.79a.5.5,0,1,1,1,.13L69.23,207A.5.5,0,0,1,68.73,207.42Z"/><path class="cls-5" d="M54.86,165.64c-2.94,6.14-14.39,29.1-14.39,29.1s23.86,2.72,30.71,3.71c.41-7.34,8-65.56,9.26-69.67-1.94-.1-7.49-.7-9,.28C70.35,130.68,58.77,157.46,54.86,165.64Z"/><path class="cls-4" d="M62.52,148.68c-1.2,2.7-2.4,5.4-3.52,7.89l17,2.06c.37-2.8.75-5.55,1.11-8.18Z"/><path class="cls-4" d="M55.19,164.95l-.33.69c-.74,1.54-2,4.13-3.5,7.16l22.44,2.72c.33-2.65.69-5.41,1-8.19Z"/><path class="cls-4" d="M47.42,180.77l-3.9,7.84L71.81,192c.26-2.33.59-5.11,1-8.2Z"/><path class="cls-4" d="M69.6,132.87c-1,2.08-2.19,4.82-3.55,7.88l12.21,1.48c.45-3.16.87-5.95,1.22-8.17Z"/><path class="cls-6" d="M68.84,131.62c3.25,1.52,13.53.2,18-.7A242.53,242.53,0,0,0,122.22,121c7.14-2.57,19.23-7.46,19.75-9.81s-2.64-14-8.79-13C118,105.39,89.09,114.87,65.78,118,64.64,119.28,65,129.84,68.84,131.62Z"/><path class="cls-7" d="M99.4,110.54l5.37,16.07c2.35-.67,4.69-1.38,7-2.11l-5.38-16.1C104.12,109.13,101.78,109.85,99.4,110.54Z"/><path class="cls-7" d="M85.06,114.34l5.3,15.85q3.62-.78,7.18-1.66l-5.34-16Q88.64,113.5,85.06,114.34Z"/><path class="cls-7" d="M69.85,117.39l5,14.91a71.39,71.39,0,0,0,7.52-.65l-5.21-15.58C74.68,116.57,72.24,117,69.85,117.39Z"/><path class="cls-7" d="M113.28,106.12l5.39,16.11c1.18-.41,2.36-.82,3.55-1.25,1-.37,2.17-.79,3.35-1.24l-5.39-16.12Q116.87,104.88,113.28,106.12Z"/><path class="cls-7" d="M126.37,101.2l5.37,16.06c2.48-1.06,4.84-2.16,6.67-3.18l-5.3-15.84C131.09,99.19,128.82,100.19,126.37,101.2Z"/><path class="cls-7" d="M62.77,218.08h0a.5.5,0,0,1-.47-.53l.44-8.33a.48.48,0,0,1,.53-.47.5.5,0,0,1,.47.53l-.44,8.33A.5.5,0,0,1,62.77,218.08Z"/><path class="cls-7" d="M64.72,218.08a.5.5,0,0,1-.5-.5v-8.71a.5.5,0,0,1,1,0v8.71A.5.5,0,0,1,64.72,218.08Z"/><path class="cls-7" d="M67.22,218.08a.5.5,0,0,1-.5-.5v-9a.5.5,0,0,1,1,0v9A.5.5,0,0,1,67.22,218.08Z"/><path class="cls-7" d="M69.77,218.08a.5.5,0,0,1-.5-.45l-1-9a.5.5,0,0,1,1-.11l1,9a.5.5,0,0,1-.44.55Z"/><path class="cls-7" d="M71.44,217.84a.5.5,0,0,1-.5-.47L70.41,208a.5.5,0,0,1,.47-.53.49.49,0,0,1,.53.47l.53,9.33a.5.5,0,0,1-.47.53Z"/><path class="cls-7" d="M73.72,217.84a.5.5,0,0,1-.5-.45l-.94-9.33a.5.5,0,0,1,1-.1l.94,9.33a.5.5,0,0,1-.45.55Z"/><path class="cls-7" d="M75.47,217.84a.5.5,0,0,1-.5-.5v-9.72a.5.5,0,0,1,1,0v9.72A.5.5,0,0,1,75.47,217.84Z"/><path class="cls-7" d="M77.84,217.55a.5.5,0,0,1-.5-.5v-9.44a.5.5,0,0,1,1,0v9.44A.5.5,0,0,1,77.84,217.55Z"/><path class="cls-7" d="M79.59,217.55a.5.5,0,0,1-.5-.5v-9.44a.5.5,0,0,1,1,0v9.44A.5.5,0,0,1,79.59,217.55Z"/><path class="cls-7" d="M81.68,217a.5.5,0,0,1-.5-.47l-.65-9.31a.5.5,0,1,1,1-.07l.65,9.31a.5.5,0,0,1-.46.53Z"/><path class="cls-7" d="M84,216.68a.5.5,0,0,1-.5-.5v-9.31a.5.5,0,0,1,1,0v9.31A.5.5,0,0,1,84,216.68Z"/><path class="cls-7" d="M86.22,216.68a.5.5,0,0,1-.5-.5v-9.31a.5.5,0,0,1,1,0v9.31A.5.5,0,0,1,86.22,216.68Z"/><path class="cls-7" d="M88.59,216.18a.5.5,0,0,1-.5-.48l-.33-9.19a.5.5,0,0,1,.48-.52.52.52,0,0,1,.52.48l.33,9.19a.5.5,0,0,1-.48.52Z"/><path class="cls-7" d="M89.91,216.68h0a.5.5,0,0,1-.48-.52l.31-9.69a.55.55,0,0,1,.52-.48.5.5,0,0,1,.48.52l-.31,9.69A.5.5,0,0,1,89.91,216.68Z"/><path class="cls-7" d="M91.84,216.68a.5.5,0,0,1-.5-.5V205.87a.5.5,0,0,1,1,0v10.31A.5.5,0,0,1,91.84,216.68Z"/><path class="cls-7" d="M95,216.18a.5.5,0,0,1-.5-.44l-1.12-9.81a.5.5,0,1,1,1-.11l1.12,9.81a.5.5,0,0,1-.44.55Z"/><path class="cls-7" d="M96.53,215.37a.5.5,0,0,1-.5-.47l-.5-9.44a.5.5,0,0,1,.47-.53.49.49,0,0,1,.53.47l.5,9.44a.5.5,0,0,1-.47.53Z"/><path class="cls-7" d="M98,216.18h0a.5.5,0,0,1-.48-.52l.44-10.25a.52.52,0,0,1,.52-.48.5.5,0,0,1,.48.52l-.44,10.25A.5.5,0,0,1,98,216.18Z"/><path class="cls-7" d="M101.19,215.37a.5.5,0,0,1-.49-.43l-1.31-9.44a.5.5,0,0,1,1-.14l1.31,9.44a.5.5,0,0,1-.43.56Z"/><path class="cls-6" d="M62.77,209.7c8.42-.94,34.8-3,37.69-3.59.14-3.45-3.21-51.9-5-65.87-.65-5.16-2-26.13-2.48-28.92-1.21-2.62-17.36-1-19.79,2.29C71.4,116.06,62.67,199.8,62.77,209.7Z"/><path class="cls-7" d="M97.15,157.4l-29.93,2c-.3,2.78-.59,5.56-.87,8.33l31.47-2.05C97.6,162.8,97.37,160,97.15,157.4Z"/><path class="cls-7" d="M98.48,174.38l-33,2.16c-.28,2.86-.55,5.65-.8,8.32l34.42-2.25C98.89,179.94,98.69,177.17,98.48,174.38Z"/><path class="cls-7" d="M99.64,191l-35.76,2.33c-.27,3.1-.5,5.91-.68,8.32l37-2.41C100,196.88,99.85,194.09,99.64,191Z"/><path class="cls-7" d="M95.58,140.92l-26.51,1.73c-.31,2.7-.62,5.49-.94,8.33l28.29-1.85C96.12,145.87,95.83,143.06,95.58,140.92Z"/><path class="cls-7" d="M94.17,124.51,71.1,126c-.33,2.51-.69,5.32-1.05,8.34l24.76-1.62C94.6,130.18,94.38,127.31,94.17,124.51Z"/><path class="cls-7" d="M93,111.33c-1.21-2.62-17.36-1-19.79,2.29A25.41,25.41,0,0,0,72.09,119l21.54-1.41C93.38,114.54,93.16,112.15,93,111.33Z"/><path class="cls-8" d="M93.11,77.74c-.43-.79-1.46-.88-2.26-1.06s-1.57-.54-2.27-.2a.7.7,0,0,0-.32.79c.2.79,1.16,1,1.84,1.26s1.75.73,2.51.44A.85.85,0,0,0,93.11,77.74Z"/><path class="cls-8" d="M100.89,69.42c-1,.12-1.3,1.39-1.3,2.24,0,1.08-.08,2.71,1.3,2.89a.38.38,0,0,0,.37-.28,6.37,6.37,0,0,0-.06-2.13,6.38,6.38,0,0,1,.24-2A.58.58,0,0,0,100.89,69.42Z"/><path class="cls-8" d="M94,70c-.59-.73-1.47-1.84-2.48-2-.28,0-.36.3-.31.55a6,6,0,0,0,1.42,2.59c.55.81,1.33,2,2.4,2.14a.41.41,0,0,0,.41-.41A8,8,0,0,0,94,70Z"/><path class="cls-8" d="M86.93,70.3a9.75,9.75,0,0,0-1.47-.84c-.56-.27-.9-.79-1.52-1-.82-.26-1.3.79-.79,1.36a6.38,6.38,0,0,0,3.22,1.78A.72.72,0,0,0,86.93,70.3Z"/><path class="cls-8" d="M98,62a.45.45,0,0,0-.54-.07c-.72.42-.78,1.37-.91,2.11a4.51,4.51,0,0,0,.09,2.76.64.64,0,0,0,1.16-.15c.22-.79.21-1.65.38-2.46S98.62,62.61,98,62Z"/><path class="cls-8" d="M80.26,73.14a8.13,8.13,0,0,0-2.59-1.94,8.78,8.78,0,0,0-2.49-.88.72.72,0,0,0-.71.71c-.09.95.93,1.4,1.69,1.6,1.23.32,2.2,1.28,3.45,1.61A.66.66,0,0,0,80.26,73.14Z"/><path class="cls-8" d="M94.33,56.41a.3.3,0,0,0-.49-.13c-1.38,1.26-1.5,3.45-1.14,5.18a.53.53,0,0,0,1,0c.19-.89,0-1.84.3-2.7S94.67,57.31,94.33,56.41Z"/><path class="cls-8" d="M88.33,64.57A34.51,34.51,0,0,0,86,61.24c-.51-.59-1.36,0-1.21.71A4,4,0,0,0,86,64.14c.73.67,1.34,1.15,2.17.88A.32.32,0,0,0,88.33,64.57Z"/><path class="cls-8" d="M79.47,67.07a16.65,16.65,0,0,0-3.92-2.79c-.82-.35-1.7.58-1,1.29a6.11,6.11,0,0,0,2.59,1.66,8.83,8.83,0,0,0,2.25.47C79.57,67.68,79.85,67.5,79.47,67.07Z"/><path class="cls-8" d="M92.47,50.21a.43.43,0,0,0-.53-.3c-1,.29-1.35,1.43-1.68,2.33A7.08,7.08,0,0,0,89.81,56,.6.6,0,0,0,91,56c.26-1,.39-2,.69-3S92.62,51.22,92.47,50.21Z"/><path class="cls-8" d="M84.88,53.4a5,5,0,0,0-1.73-2.34.41.41,0,0,0-.6.25,4.89,4.89,0,0,0,.85,3,11,11,0,0,0,2.14,2.26c.52.45.8-.07.69-.36C86.06,55.66,85.14,53.91,84.88,53.4Z"/><path class="cls-8" d="M81.78,60.9A8.38,8.38,0,0,0,79.65,58c-.61-.61-1.46-1.61-2.43-1.48a.77.77,0,0,0-.54,1.3c.57.57,1.18,1.09,1.73,1.69a9.84,9.84,0,0,0,2.24,2.21C81.2,62.08,82,61.56,81.78,60.9Z"/><path class="cls-8" d="M70.69,60.65c-.39-1.11-1.54-1.53-2.54-1.93a5.4,5.4,0,0,0-3.62-.47.73.73,0,0,0,0,1.4c1,.43,2.16.61,3.19,1.06a3.75,3.75,0,0,0,2.63.55A.5.5,0,0,0,70.69,60.65Z"/><path class="cls-8" d="M62.52,66.65a3.76,3.76,0,0,0-3.12-1.36c-1.12-.08-3.45.53-3.48,1.33s1.46.28,2.22.29c1.38,0,2.72.38,4.09.27C62.46,67.16,62.7,66.88,62.52,66.65Z"/><path class="cls-8" d="M102.08,51.61a.42.42,0,0,0-.36-.21c-.9.11-1.19,1.08-1.52,1.83a7.13,7.13,0,0,0-.85,3.26.71.71,0,0,0,1.38.19c.34-1,.56-2,1-2.94C102,53.1,102.54,52.27,102.08,51.61Z"/><path class="cls-8" d="M102.72,40.52c-1.21.14-2.12,1.23-2.83,2.11s-1.61,2.44-1.12,3.52c.09.2.48.21.65-.19s.29-.71.48-1.05a9.58,9.58,0,0,1,1.3-1.61c.68-.74,1.69-1.41,1.83-2.47A.3.3,0,0,0,102.72,40.52Z"/><path class="cls-8" d="M90.55,41.21c-1.5.85-1.68,3-1.34,4.56a.53.53,0,0,0,1,0c.14-.62.18-1.25.35-1.86A8,8,0,0,0,91,41.49.33.33,0,0,0,90.55,41.21Z"/><path class="cls-8" d="M83.91,43.89c-.34-1.31-.36-2.62-.61-3.94a.78.78,0,0,0-1.49,0,11.2,11.2,0,0,0,.1,3.57c.09.67.63,2.15,1.48,2.15S84,44.33,83.91,43.89Z"/><path class="cls-8" d="M78.59,47.08c-.2-.77-1-1.36-1.41-2a6.37,6.37,0,0,0-1.84-2c-.39-.24-.75.15-.69.53.24,1.64,1.35,3.85,3,4.38A.75.75,0,0,0,78.59,47.08Z"/><path class="cls-8" d="M67.65,45.57c-.19-.84-1.12-1.27-1.71-1.81s-1.12-1.52-1.92-2a.53.53,0,0,0-.72.19c-.58,1.11.35,2.24,1,3.07s1.91,1.87,3,1.26A.67.67,0,0,0,67.65,45.57Z"/><path class="cls-8" d="M59.89,50.78c-.78-.44-1.74-1.23-2.69-1.2a.61.61,0,0,0-.58.15l-.08.08a.71.71,0,0,0-.19.71c.38.92,1.48,1.48,2.31,2,.44.25,2.19,1.37,2.59.57S60.6,51.18,59.89,50.78Z"/><path class="cls-8" d="M56.48,57.57c-1.1-1.14-3.17-.9-4.6-.74-.77.09-2.63.2-2.63,1.16s1.52.69,2.14.68c1.53,0,3.72.42,5-.53A.37.37,0,0,0,56.48,57.57Z"/><path class="cls-8" d="M39.55,56.5c-1.29.08-2.46.26-3,1.45a.5.5,0,0,0,.44.66c1,.21,2-.29,3-.3.8,0,1.8.25,2.48-.27a.47.47,0,0,0,.13-.56C42.12,56.44,40.48,56.44,39.55,56.5Z"/><path class="cls-8" d="M50.82,52.11A5.56,5.56,0,0,0,48,51c-.82-.16-2.15-.44-2.75.3a.19.19,0,0,0,0,.19c.33.8,1.38.92,2.13,1.11a5.12,5.12,0,0,0,3.43.06A.34.34,0,0,0,50.82,52.11Z"/><path class="cls-8" d="M55.53,38.62c-.89-.67-2.16-1.49-3.3-1.05a.62.62,0,0,0-.27,1c.79.76,1.93,1.21,2.81,1.9.68.54,1.8,1.45,2.7.93a.49.49,0,0,0,.24-.42C57.63,40,56.28,39.2,55.53,38.62Z"/><path class="cls-8" d="M69.81,37.59a23.86,23.86,0,0,0-3-2.83.56.56,0,0,1,.48-1c2.19.5,4.77,3.27,5,5.5a.34.34,0,0,1-.49.33A6.66,6.66,0,0,1,69.81,37.59Z"/><path class="cls-8" d="M79.1,34.66A14.49,14.49,0,0,0,78,32.15c-.12-.18-.46-1-.82-.66-.71.77-.16,2.49.16,3.39s.78,2,1.69,2.06a.44.44,0,0,0,.38-.22C79.82,36.08,79.34,35.25,79.1,34.66Z"/><path class="cls-8" d="M89.08,33.42a3.85,3.85,0,0,0-1.77,2.33c-.34.89-1,2.24-.64,3.18a.48.48,0,0,0,.91-.07c.25-.84.64-1.64.92-2.44a17.86,17.86,0,0,0,1-2.7A.28.28,0,0,0,89.08,33.42Z"/><path class="cls-8" d="M98.44,35c-1.18-.23-2,1-2.51,1.86a16.24,16.24,0,0,0-1.83,3.49c-.19.6.37,1.07.62.63a31.94,31.94,0,0,1,3.12-4.07,3.07,3.07,0,0,0,.89-1.38A.43.43,0,0,0,98.44,35Z"/><path class="cls-8" d="M86.39,26.25c-1-.67-1.68.68-1.85,1.44a4.76,4.76,0,0,0-.09,1.73,2.84,2.84,0,0,0,.2.74.74.74,0,0,0,.17.26c-.26-.29,0,0,0,.07a.64.64,0,0,0,1.09,0c.07-.11.27-.39,0-.07a1.29,1.29,0,0,0,.28-.59,8.72,8.72,0,0,0,.13-1.28A4.54,4.54,0,0,1,86.7,27,.67.67,0,0,0,86.39,26.25Z"/><path class="cls-8" d="M61.72,32a2.15,2.15,0,0,0-2.42-.55.8.8,0,0,0,0,1.37,9.42,9.42,0,0,1,1.4.85,2.15,2.15,0,0,0,1.75.7.65.65,0,0,0,.47-.62A2.88,2.88,0,0,0,61.72,32Z"/><path class="cls-8" d="M95.72,27.28a3.57,3.57,0,0,0-2,1.81,3.37,3.37,0,0,0-.85,2.17c0,.25.31.22.51.1a9,9,0,0,0,1.5-1.51,3.92,3.92,0,0,0,1.21-2.25A.31.31,0,0,0,95.72,27.28Z"/><path class="cls-8" d="M71,50.35c-.63-.26-1.43-.74-2.13-.52a.53.53,0,0,0-.38.5c0,.76.71,1.18,1.31,1.45s2.53,1.23,3.27,1.06a.5.5,0,0,0,.37-.49C73.45,51.6,71.68,50.61,71,50.35Z"/><path class="cls-8" d="M48.69,44.24c-1.42-1.21-4.73-1.32-6-.64-.6.32-1.13.81-.53,1.17a7.19,7.19,0,0,0,3,.64c1,0,2.18.5,3.22.22C49.22,45.41,49.39,44.84,48.69,44.24Z"/><path class="cls-8" d="M74.34,28.18c0-.37.08-.81-.21-1.1a.67.67,0,0,0-.8-.15c-.59.28-.55,1.2-.57,1.75a5.19,5.19,0,0,0,.46,2.43.71.71,0,0,0,1.32-.36C74.48,29.88,74.33,29.06,74.34,28.18Z"/><path class="cls-8" d="M95.77,47.88a7,7,0,0,0-.92,2,3.59,3.59,0,0,0-.23,1.92c.16.53,1,.76,1.29.17s.37-1.1.58-1.64a7,7,0,0,0,.62-2.14C97.16,47.48,96.14,47.33,95.77,47.88Z"/><path class="cls-8" d="M103.75,27.81c-1.44.21-3.87,1.46-4,3.1a.63.63,0,0,0,1.07.44,5.65,5.65,0,0,1,1.57-1.07,9.13,9.13,0,0,0,2.24-.95C105.44,28.69,104.54,27.69,103.75,27.81Z"/><path class="cls-8" d="M108.09,33a8.9,8.9,0,0,0-3.85,1.88c-.72.57-1.7,2.12-.95,3.07a.53.53,0,0,0,.65.08,6.33,6.33,0,0,0,.74-.83c.31-.32,2-1.57,2.45-1.91s1-.57,1.54-.89A.77.77,0,0,0,108.09,33Z"/><path class="cls-8" d="M40.87,51.78c-1.44-1.15-4.38-.68-6,0a1,1,0,0,0,.54,2,24.65,24.65,0,0,1,3.73-.66c.49,0,1.74.27,1.89-.51v0A.74.74,0,0,0,40.87,51.78Z"/><path class="cls-8" d="M247.28,123c-.36-1.33-1.81-1.85-2.95-2.41a9.44,9.44,0,0,0-4.29-1.06,1,1,0,0,0,0,1.92,9.19,9.19,0,0,1,3.6,1.21c1.05.55,2,1.39,3.22,1.06A.59.59,0,0,0,247.28,123Z"/><path class="cls-8" d="M222.83,123c-.57.23-.94,1.19-.2,1.52a29,29,0,0,0,4.59,1c1.65.42,3.13,1.86,4.83,1.9a.67.67,0,0,0,.67-.67C232.39,123.38,225.48,121.93,222.83,123Z"/><path class="cls-8" d="M200.34,117.2c-2.49-2.5-6.64-2.81-9.83-1.79-.92.3-.54,1.23,0,1.46l0,0c1.56.34,3.1-.21,4.67.08s3.22,1,4.87.92A.41.41,0,0,0,200.34,117.2Z"/><path class="cls-8" d="M226.78,134.59c-1.07-2.29-5.55-4.35-7.66-2.37a.38.38,0,0,0,.27.64,9.63,9.63,0,0,1,3.84.81,16.53,16.53,0,0,0,3,1.59A.46.46,0,0,0,226.78,134.59Z"/><path class="cls-8" d="M180.16,117.77c-2.83-1-7.13-1-9.59.9-.59.46.07,1.25.66,1.14a32.19,32.19,0,0,1,4.5-.73,15.65,15.65,0,0,0,4.42-.54A.4.4,0,0,0,180.16,117.77Z"/><path class="cls-8" d="M191.58,125.17a9.49,9.49,0,0,0-7.35-1.61.62.62,0,0,0,.16,1.22c2.38,0,4.63,1,7,1.09C191.78,125.89,191.87,125.36,191.58,125.17Z"/><path class="cls-8" d="M176.1,127.44c-1.05-1-2.63-.54-3.94-.47-1.7.09-3.6-.19-5.18.49a.8.8,0,0,0,0,1.38c1.58.69,3.49.41,5.18.37,1.38,0,3.16.13,4-1.12A.54.54,0,0,0,176.1,127.44Z"/><path class="cls-8" d="M197.39,135.15c-1.83-1.87-5.76-2.29-8.17-1.58a.62.62,0,0,0,0,1.18,25.47,25.47,0,0,0,3.86.63,22.48,22.48,0,0,0,4,.59A.48.48,0,0,0,197.39,135.15Z"/><path class="cls-8" d="M241.38,138.71c-1.52-2.05-5.35-3.85-7.89-3a.57.57,0,0,0,0,1.09c.07,0,1.6.49,1.85.56a13.43,13.43,0,0,1,2.06.75,12.14,12.14,0,0,0,3.57,1.28A.47.47,0,0,0,241.38,138.71Z"/><path class="cls-8" d="M257.71,128.73a4,4,0,0,0-2.22-2.57,3.79,3.79,0,0,0-2-.54c-.64,0-.68.86-.14,1.05,1.48.54,2.54,1.66,3.9,2.48C257.51,129.28,257.78,129,257.71,128.73Z"/><path class="cls-8" d="M160,119.19c-2.63-.33-5.86-.76-8.34.43a.46.46,0,0,0-.24.41c0,.14,0,.27.15.35.62.42,2,.16,2.71.16a36.12,36.12,0,0,1,5.46.48A.93.93,0,1,0,160,119.19Z"/><path class="cls-8" d="M214.83,116.18c-1.72-.31-4.08-.45-5.67.4a.62.62,0,0,0,.15,1.13,9.18,9.18,0,0,0,2.77.16,22.09,22.09,0,0,1,4.09.56.93.93,0,0,0,1-.41C218,116.73,215.59,116.32,214.83,116.18Z"/><path class="cls-8" d="M213.47,126.23c-2.09-1.46-5.86-2.55-8.23-1.31a.47.47,0,0,0,0,.81,27.39,27.39,0,0,0,3.74,1c1.26.41,2.35,1.21,3.58,1.68S214.5,127,213.47,126.23Z"/><path class="cls-8" d="M213.23,138.46a5.08,5.08,0,0,0-3.48-.17.43.43,0,0,0,0,.74,7.12,7.12,0,0,0,1.77.48,8.07,8.07,0,0,1,2.07.84c.32.18,1.84,1,1.92.06S214,138.71,213.23,138.46Z"/><path class="cls-8" d="M250.18,135.72a14.3,14.3,0,0,0-3.85-3.71c-1.1-.84-3.35-1.84-4.72-1.37a.43.43,0,0,0-.18.7,4.72,4.72,0,0,0,1.9,1.1,9.82,9.82,0,0,1,2.58,1.78,13.11,13.11,0,0,0,3.51,2.86C250,137.34,250.53,136.33,250.18,135.72Z"/><path class="cls-8" d="M260.94,137.68a7.15,7.15,0,0,0-1.4-1.16,1.8,1.8,0,0,0-1.15-.55.35.35,0,0,0-.18.66,11.83,11.83,0,0,1,1.23,1.37,8,8,0,0,1,1.23,1.73c.23.42,1.1,1.93,1.66,1C262.81,139.89,261.4,138.25,260.94,137.68Z"/><path class="cls-8" d="M259.35,145.28c-.46-.76-2.33-2.65-2.73-1.69s.88,1.67,1.23,2.26c.58,1,.7,2.21,1.86,2.68a.59.59,0,0,0,.74-.57A7.55,7.55,0,0,0,259.35,145.28Z"/><path class="cls-8" d="M247.44,146.11a.2.2,0,0,0-.12.29c.46.84,1.58,1.07,2.31,1.64s1.26,1.39,2.28,1.52a.26.26,0,0,0,.26-.26C252,147.55,249.17,145.51,247.44,146.11Z"/><path class="cls-8" d="M263.19,152.68a.41.41,0,0,0-.69,0l0,0c-.37.55.31,1.63.49,2.14.53,1.53.95,3.09,1.43,4.63a.22.22,0,0,0,.44-.06A10.76,10.76,0,0,0,263.19,152.68Z"/><path class="cls-8" d="M232.7,141.9c-.15-1-1.22-1.43-2.05-1.81a4.93,4.93,0,0,0-3.07-.44.53.53,0,0,0,0,1,18.07,18.07,0,0,1,2.58.89c.79.35,1.41.91,2.32.75A.33.33,0,0,0,232.7,141.9Z"/><path class="cls-8" d="M240.33,149.41a3.09,3.09,0,0,0-1.54-1.55c-.61-.37-1.62-.76-2.14-.1a.33.33,0,0,0,0,.46,10.4,10.4,0,0,0,1.62.9,2.82,2.82,0,0,0,1.78.66C240.23,149.77,240.41,149.61,240.33,149.41Z"/><path class="cls-8" d="M288.32,118.23c-1.56-1.79-5.41-2.28-7.28-.75-.42.34,0,.77.36.83h0c1,.11,2.09,0,3.13,0s2.34.47,3.54.51A.38.38,0,0,0,288.32,118.23Z"/><path class="cls-8" d="M312,114.31c-1.15-2.5-5.09-4.28-7.75-3.52a.39.39,0,0,0,0,.75,34.5,34.5,0,0,1,4,1.42c1.16.56,2.11,1.39,3.3,1.89C312,115,312.15,114.56,312,114.31Z"/><path class="cls-8" d="M299.63,116.51a5.74,5.74,0,0,0-3.31-.24.7.7,0,0,0,0,1.34,20.13,20.13,0,0,1,2.28.61c.75.26,1.51.88,2.32.86a.6.6,0,0,0,.61-.59C301.5,117.52,300.48,116.84,299.63,116.51Z"/><path class="cls-8" d="M289.18,106.62a7.93,7.93,0,0,0-6.74,1.69c-.55.49.15,1.29.75,1a6,6,0,0,1,2.86-.89c1,0,1.91.13,2.86.14S290.28,106.81,289.18,106.62Z"/><path class="cls-8" d="M301.38,105.3a5.76,5.76,0,0,0-5.39-1,.46.46,0,0,0,.11.84l2.2.37c.87.15,1.63.6,2.48.79a.63.63,0,0,0,.61-.16.83.83,0,0,0,.16-.28A.61.61,0,0,0,301.38,105.3Z"/><path class="cls-8" d="M278.72,111.58c-1.45-.16-3.15.87-4.28,1.68a.56.56,0,0,0,.57,1c.82-.37,1.58-.85,2.42-1.19.62-.25,1.21-.44,1.51-1.09A.25.25,0,0,0,278.72,111.58Z"/><path class="cls-8" d="M296.45,111.56a6.74,6.74,0,0,0-5.78-.12.35.35,0,0,0,0,.61c1.25.6,2.95.18,4.32.42.61.1,1.67.57,1.77-.38A.61.61,0,0,0,296.45,111.56Z"/><path class="cls-8" d="M314.52,108.31a7.41,7.41,0,0,0-5-2.6.28.28,0,0,0-.2.48,10.71,10.71,0,0,0,2.09,1.23,7.79,7.79,0,0,0,2.68,1.41C314.39,108.87,314.74,108.59,314.52,108.31Z"/><path class="cls-8" d="M319.78,115.33c-.23-.15-2.77-1.52-2.61-.42a.9.9,0,0,0,.45.62c.51.38,1,.76,1.46,1.19s.83.81,1.23,1.24.58.88,1.16,1.13c.4.17,1,0,1-.57C322.3,117,320.93,116.1,319.78,115.33Z"/></g><g id="Bird"><path d="M222.77,105.73a15.25,15.25,0,0,1-1.16,1.61,4.23,4.23,0,0,1-1.16,1.15,10,10,0,0,1-1.72.57c-.8.24-4.8,1.09-5.07,1.17-1,.3-1,.77-.25.6.28-.06,2.11-.42,2.73-.56a11.72,11.72,0,0,1,1.83-.33c.15.28-3.9,1.2-4.5,1.69-.41.33-.28.49,0,.48s3-.82,4-1.06c.44-.11.88-.21,1.31-.34a13.07,13.07,0,0,1,5.76-.48c.22,0,.79,0,1,.1a9.28,9.28,0,0,1-1.65-1.89c-.76-1.48,1.56-4.81,2-5.6a27.37,27.37,0,0,1,1.83-2.71c.27-.4.75-.79.4-1.26-.88-1.21-1.05-.6-1.33-.14C225.85,100.21,223.72,104.26,222.77,105.73Z"/><path class="cls-9" d="M272.53,79.16c3.07-2,6.1-4.11,9.25-5.91A45.7,45.7,0,0,1,286,70.7a29.3,29.3,0,0,1,2.65,5.36c-6.48,2.89-22.85,8.42-25,8.41C265.22,83.45,271.16,80,272.53,79.16Z"/><path class="cls-9" d="M264.11,84.23c3.83-4.71,8.31-8.86,12.57-13.38,1.17-1.24,2.32-2.1,3.61-3.64a16.8,16.8,0,0,1,2.13,3.16,52.21,52.21,0,0,1-5.17,4.26c-2.85,2.19-11.78,8.71-13.12,10Z"/><path class="cls-9" d="M270.93,82.9c3.94-.87,7.76-1.82,11.75-3,1.38-.42,2.82-1,4.33-1.31a24.61,24.61,0,0,1,.75,5c-2.64-.11-6.33.3-9.08.39-4,.12-14.34.95-16,1C263,84.45,268.69,83.4,270.93,82.9Z"/><path class="cls-10" d="M207.8,58.57c2.83-2.17,4.75-10.33,17-10.33C236,48.24,240.55,59,243,62.75c2.81,4.24,14.44,19.49,23.24,20.8-6.71,9.75-21.35,15.63-32.93,16.29-6.36.36-21.74-3.1-23-20.22-.49-6.42,2.92-12.82-2.19-15.86C206.42,62.77,206.33,59.7,207.8,58.57Z"/><path d="M199.07,62.43c1.37,1.07,6.1,1.33,7.35,1.38a24.21,24.21,0,0,0,7.13-1.12,12.61,12.61,0,0,1-3.22-1.51c-.75-.44-2.38-1.53-2.52-2.59C205.72,60.12,200.48,61.73,199.07,62.43Z"/><path d="M221.14,63.81a4.48,4.48,0,0,0,4.62-.41,5.67,5.67,0,0,0,1.69-2c-1.26,1.19-5.12,3.17-7.21.63a4.06,4.06,0,0,1-.82-2A3.27,3.27,0,0,0,221.14,63.81Z"/><path class="cls-9" d="M234.8,64.24C230.53,66,230,71.87,231.61,76c2.83,7.12,10.88,10.54,18.53,10.17a20.14,20.14,0,0,0,12.5-4.58c-6.9-3.79-8.82-7.74-14-13.08C245,64.78,242.08,61.19,234.8,64.24Z"/><path d="M232.47,72.3c.24.86.89,1.86,2.55,3.41.81.76,3.5,1.94,4.53,1,.58-.54.36-1.51.17-2.18,1.85,1.57,4.71,3.19,6.85,2.37.85-.33.36-1.78.45-2.08a11.11,11.11,0,0,0,3,1.12,3.16,3.16,0,0,0,2-.28,1.54,1.54,0,0,0,.57-1.75,4.13,4.13,0,0,0-.82-1.82c.1,1.62.65,2.8-.82,2.94a7.94,7.94,0,0,1-5.08-1.77c.33.66,1.31,2.87-.11,3.14s-5.47-2.23-7.18-3.44c.46,1.18,1.16,3.27-1.15,3A6.34,6.34,0,0,1,234,74.11C233.18,73.21,232.85,72.69,232.47,72.3Z"/><path d="M248,82.91a2.07,2.07,0,0,0-.29-1.71,6.25,6.25,0,0,0,2.69,1.59c.84.28,2.71.37,2.94-.81a2.28,2.28,0,0,0-.55-1.59c1.18.95,5.56,1.82,5.46-.63a3,3,0,0,0-.59-1.5c.12,1.11.58,2.1-.75,2.26a8.7,8.7,0,0,1-3.32-.41c-.54-.15-1-.33-1.52-.45,0,.85,1.12,2,.09,2.39s-2.66-.39-3.52-.8c-.51-.25-1-.61-1.45-.79,0,.5.22,1.6-.16,2s-1.53.26-2,.15a24.38,24.38,0,0,1-4-1.81C242.57,82.59,247.14,84.8,248,82.91Z"/><path d="M232,111.22a2.14,2.14,0,0,1-1.12.78c-.62.26-1.43.63-2.06.88-.85.33-3.88,1.28-4.58,1.64s-1.67,1.57.73.48a24.92,24.92,0,0,1,4.61-1.4,24.23,24.23,0,0,1-2.8,1.41,10.8,10.8,0,0,0-2.08,1.34c-.22.3-.36.59.47.59,5.11-3.4,10.49-4.69,13.59-4.43-1.37-1.13-2.73-.79-4.4-1.13-.57-2.83,3.33-10.32,4-13a2.33,2.33,0,0,0-1.62.15,23.19,23.19,0,0,0-1.89,5c-.65,2-1.25,4.13-2.1,6.11A11.89,11.89,0,0,1,232,111.22Z"/></g></g></svg>