<svg xmlns="http://www.w3.org/2000/svg" viewBox="0 0 484.84 352.09"><defs><style>.cls-1{fill:#e4f1f1;}.cls-2{fill:#cee2e6;}</style></defs><title>trees</title><g id="Layer_2" data-name="Layer 2"><g id="Background"><polygon class="cls-1" points="441.35 317.42 402.61 317.42 404.22 0 438.93 0 441.35 317.42"/><polygon class="cls-1" points="413.61 161.99 332.64 2.8 345.61 2.8 416.27 114.71 413.61 161.99"/><polygon class="cls-1" points="321.62 344.71 278.64 344.71 280.43 0.29 318.93 0.29 321.62 344.71"/><polygon class="cls-1" points="164.57 79.84 207.65 0.29 186.98 0.29 162.92 30.18 164.57 79.84"/><polygon class="cls-1" points="179.02 328 131.02 328 136.02 0 172.02 0 179.02 328"/><polygon class="cls-1" points="35.79 337.11 0 337.11 2.84 0.09 31.53 0.09 35.79 337.11"/><polygon class="cls-1" points="24.88 162.47 112.19 0.29 123.5 0.29 30.29 216.95 24.88 162.47"/><polygon class="cls-2" points="101.86 352.09 58.05 352.09 61.35 0 96.36 0 101.86 352.09"/><polygon class="cls-2" points="66.45 108.33 4.77 0 25.44 0 68.11 58.67 66.45 108.33"/><polygon class="cls-2" points="247.77 352.09 197.31 352.09 201.31 0 241.77 0 247.77 352.09"/><polygon class="cls-2" points="484.84 352.09 449.37 352.09 452.18 1.16 480.62 1.16 484.84 352.09"/><polygon class="cls-2" points="384.34 352.09 325.87 352.09 331.87 0 374.44 0 384.34 352.09"/><polygon class="cls-2" points="338.08 128.5 290.46 0 279.15 0 332.67 171.67 338.08 128.5"/><polygon class="cls-2" points="368.32 52.34 401.02 0 412.46 0 365.22 112.44 368.32 52.34"/></g></g></svg>